<?xml version="1.0" encoding="UTF-8"?>
<svg version="1.1" xmlns="http://www.w3.org/2000/svg" width="500" height="500">
<path d="M0 0 C165 0 330 0 500 0 C500 165 500 330 500 500 C335 500 170 500 0 500 C0 335 0 170 0 0 Z " fill="#F4B802" transform="translate(0,0)"/>
<path d="M0 0 C3.91170358 0.5626423 5.803852 2.38378781 8.625 5.0625 C13.56227244 9.64711012 18.70264458 13.83779217 24 18 C24.33 13.05 24.66 8.1 25 3 C36.55 3 48.1 3 60 3 C60 18.51 60 34.02 60 50 C61.32 50.66 62.64 51.32 64 52 C65.09057065 52.83373216 66.15073668 53.7084995 67.1796875 54.6171875 C67.77168945 55.13571289 68.36369141 55.65423828 68.97363281 56.18847656 C69.60108398 56.7450293 70.22853516 57.30158203 70.875 57.875 C72.2210585 59.05502485 73.56741969 60.23470451 74.9140625 61.4140625 C75.59500977 62.01250977 76.27595703 62.61095703 76.97753906 63.22753906 C80.05143347 65.92146391 83.14740742 68.58921729 86.25 71.25 C86.83128662 71.74878662 87.41257324 72.24757324 88.01147461 72.76147461 C91.44919267 75.70149392 94.92384621 78.58817071 98.4375 81.4375 C103.48933717 85.53979949 108.4030598 89.78701978 113.31005859 94.06005859 C117.89096638 98.04703759 122.50741507 101.98811681 127.15136719 105.90136719 C131.16384126 109.28481899 135.14715493 112.70094292 139.125 116.125 C144.31321842 120.58881207 149.56591232 124.95708303 154.890625 129.2578125 C157 131 157 131 159 133 C162.18974867 132.658068 163.89835879 131.49065127 166.171875 129.3046875 C166.7496167 128.75723877 167.3273584 128.20979004 167.92260742 127.64575195 C168.52564697 127.06140381 169.12868652 126.47705566 169.75 125.875 C171.0109501 124.67757547 172.27266266 123.4809533 173.53515625 122.28515625 C174.13730957 121.71168457 174.73946289 121.13821289 175.35986328 120.54736328 C177.2615849 118.75321151 179.2080398 117.02035028 181.1875 115.3125 C184.33953227 112.59243789 187.42441528 109.80631328 190.5 107 C194.28662998 103.54671847 198.1047632 100.13900949 201.97265625 96.77734375 C204.33489173 94.70640513 206.66795853 92.60487152 209 90.5 C212.61676345 87.23609152 216.26389608 84.01209051 219.9375 80.8125 C223.09061383 78.04158178 226.2008454 75.22355889 229.3125 72.40625 C232 70 232 70 233.97729492 68.69615173 C237.41506103 66.23350225 239.64532004 64.3496912 240.7434082 60.17105103 C241.02125099 56.7080289 241.05571125 53.32141717 241 49.84765625 C241.0163147 47.96475136 241.0163147 47.96475136 241.03295898 46.04380798 C241.0546475 42.7266143 241.04220565 39.41319294 241.01287842 36.09631348 C240.99139818 32.70406442 241.01482081 29.31213553 241.03515625 25.91992188 C241.07170416 19.2783553 241.03396906 12.6430738 241 6 C252.55 6 264.1 6 276 6 C276.33 13.92 276.66 21.84 277 30 C283.46842172 24.34521811 283.46842172 24.34521811 289.875 18.625 C290.71289062 17.86960937 291.55078125 17.11421875 292.4140625 16.3359375 C294.15985639 14.75892127 295.90462397 13.18076826 297.6484375 11.6015625 C302.0291923 7.64178113 306.42401927 3.73303691 311 0 C315.25531499 1.60462952 317.86001839 4.8209216 320.8125 8.125 C321.34004883 8.70886475 321.86759766 9.29272949 322.41113281 9.89428711 C323.4616377 11.05895631 324.50971133 12.22582368 325.55517578 13.39501953 C326.79973514 14.77753613 328.06765886 16.13895494 329.33984375 17.49609375 C329.97019531 18.17800781 330.60054688 18.85992187 331.25 19.5625 C331.79140625 20.14128906 332.3328125 20.72007813 332.890625 21.31640625 C334 23 334 23 334 27 C332.75 28.62817383 332.75 28.62817383 331 30.20703125 C330.36416992 30.79000977 329.72833984 31.37298828 329.07324219 31.97363281 C328.38907227 32.58045898 327.70490234 33.18728516 327 33.8125 C325.96214355 34.75561035 325.96214355 34.75561035 324.90332031 35.71777344 C322.94610487 37.49078037 320.97666682 39.24873317 319 41 C318.21109375 41.69996094 317.4221875 42.39992187 316.609375 43.12109375 C315.39512093 44.18484154 314.17653912 45.24367502 312.953125 46.296875 C310.43387724 48.49365905 307.96897004 50.74689619 305.5 53 C301.71743782 56.44957184 297.90436031 59.8546501 294.0390625 63.2109375 C290.78838227 66.0630669 287.59366017 68.97701022 284.39453125 71.88671875 C282 74 282 74 279.39029408 75.52544022 C275.77665917 79.26646761 276.30335285 82.68313002 276.36076355 87.70623779 C276.35240787 88.70195872 276.3440522 89.69767964 276.33544332 90.72357392 C276.31344602 94.06964961 276.3271416 97.41463488 276.34057617 100.76074219 C276.3321269 103.15539893 276.32148463 105.5500488 276.30880737 107.94468689 C276.28351673 113.77828286 276.28114673 119.61156596 276.28880527 125.44520441 C276.29648553 132.23295648 276.27602217 139.02053469 276.25378648 145.80824402 C276.21488018 157.91302138 276.19823296 170.017723 276.19555664 182.12255859 C276.19290921 193.88138718 276.17979551 205.64012725 276.15258789 217.39892578 C276.15091451 218.12371481 276.14924113 218.84850384 276.14751705 219.59525618 C276.13905759 223.23130338 276.13039217 226.86735005 276.12162435 230.50339651 C276.04915085 260.66892304 276.01416156 290.83438643 276 321 C264.45 321 252.9 321 241 321 C240.505 217.05 240.505 217.05 240 111 C235.71 114.96 231.42 118.92 227 123 C222.8125 126.6875 222.8125 126.6875 220.94921875 128.30078125 C216.91905909 131.81404669 212.96793932 135.41683056 209 139 C205.67165076 142.00560022 202.33796667 145.005087 199 148 C198.24074219 148.68835938 197.48148438 149.37671875 196.69921875 150.0859375 C195.99410156 150.71757812 195.28898438 151.34921875 194.5625 152 C193.94503906 152.556875 193.32757813 153.11375 192.69140625 153.6875 C191 155 191 155 188 156 C191.69754506 160.9725606 196.02473053 164.59427162 200.8515625 168.45703125 C204.23519912 171.16927751 207.52700348 173.98268637 210.8125 176.8125 C211.68527588 177.56406372 211.68527588 177.56406372 212.57568359 178.33081055 C213.77131238 179.36066163 214.96678601 180.39069287 216.16210938 181.42089844 C218.04569419 183.0392601 219.93592327 184.64953728 221.828125 186.2578125 C222.45356201 186.79043701 223.07899902 187.32306152 223.72338867 187.87182617 C224.91231426 188.88398332 226.10249696 189.89466647 227.29418945 190.90356445 C230.68917705 193.79939276 233.88520022 196.80399501 237 200 C236.23816406 200.88300781 235.47632813 201.76601563 234.69140625 202.67578125 C233.64839962 203.88798824 232.60543378 205.10023033 231.5625 206.3125 C231.01916016 206.94172363 230.47582031 207.57094727 229.91601562 208.21923828 C227.32922388 211.22778954 224.77644429 214.24693525 222.33984375 217.37890625 C221.56769531 218.36761719 220.79554688 219.35632813 220 220.375 C218.9790625 221.71691406 218.9790625 221.71691406 217.9375 223.0859375 C216 225 216 225 212 225 C209.58984375 223.12890625 209.58984375 223.12890625 206.9375 220.5625 C205.95398165 219.63052907 204.96824948 218.7008896 203.98046875 217.7734375 C203.48208496 217.30389648 202.98370117 216.83435547 202.47021484 216.35058594 C200.30794364 214.3642551 198.03756031 212.52712249 195.75 210.6875 C190.6386718 206.55911953 185.67475421 202.28165392 180.72143555 197.96679688 C174.53411935 192.58114371 168.2763286 187.28142997 162 182 C159.18648214 183.28895717 157.0674293 184.66268505 154.828125 186.79296875 C153.9613916 187.60942871 153.9613916 187.60942871 153.07714844 188.44238281 C152.47418945 189.01827148 151.87123047 189.59416016 151.25 190.1875 C149.99036407 191.37452696 148.7299535 192.56073245 147.46875 193.74609375 C146.86675781 194.31312012 146.26476562 194.88014648 145.64453125 195.46435547 C143.12515402 197.8169212 140.5307256 200.0760403 137.921875 202.328125 C135.58894926 204.35758073 133.29488755 206.427647 131 208.5 C124.18755552 214.63536667 117.42526945 220.60878043 110 226 C93.79562315 208.41839763 93.79562315 208.41839763 88 201 C89.33803458 197.99125902 90.77584376 196.01614357 93.1953125 193.79296875 C93.82477783 193.20990967 94.45424316 192.62685059 95.1027832 192.02612305 C96.10378052 191.11600464 96.10378052 191.11600464 97.125 190.1875 C98.14823364 189.24547729 98.14823364 189.24547729 99.19213867 188.28442383 C103.11830956 184.68055405 107.07475945 181.11457808 111.11328125 177.63671875 C113.43658787 175.62126228 115.71748465 173.56151538 118 171.5 C118.83660156 170.7471875 119.67320312 169.994375 120.53515625 169.21875 C122.12889862 167.78412929 123.72021657 166.34680866 125.30859375 164.90625 C126.01113281 164.2771875 126.71367187 163.648125 127.4375 163 C128.05496094 162.443125 128.67242187 161.88625 129.30859375 161.3125 C131 160 131 160 134 159 C134 158.34 134 157.68 134 157 C133.40630615 156.72470459 132.8126123 156.44940918 132.20092773 156.16577148 C130.10441108 155.05530371 128.55492998 153.91308946 126.78515625 152.34765625 C125.88978149 151.56249634 125.88978149 151.56249634 124.97631836 150.76147461 C124.3447583 150.20081299 123.71319824 149.64015137 123.0625 149.0625 C121.71150703 147.87695484 120.35993477 146.69206952 119.0078125 145.5078125 C118.33266602 144.91516602 117.65751953 144.32251953 116.96191406 143.71191406 C114.14682507 141.25554223 111.29605969 138.84300829 108.4375 136.4375 C103.89378206 132.60948229 99.37791706 128.7509131 94.875 124.875 C90.81379124 121.38176144 86.72481029 117.93551293 82.5625 114.5625 C66.63392857 101.63392857 66.63392857 101.63392857 61 96 C60.67 168.93 60.34 241.86 60 317 C48.45 317 36.9 317 25 317 C25.00967804 313.86291031 25.01935608 310.72582062 25.02932739 307.4936676 C25.11348168 278.71223703 25.14798163 249.93118939 25.12847102 221.14965585 C25.12595787 217.37589379 25.12387965 213.6021316 25.12207031 209.82836914 C25.1217028 209.07709501 25.12133529 208.32582088 25.12095664 207.55178087 C25.11604607 195.39418536 25.14635307 183.23692055 25.18972255 171.07941235 C25.2334528 158.60052449 25.23922696 146.12203329 25.2099179 133.64310116 C25.1930301 125.94534812 25.20559074 118.248808 25.25606923 110.5511971 C25.29163036 104.64421803 25.27432895 98.73812761 25.23747826 92.83113289 C25.23061497 90.41122592 25.24081032 87.99120055 25.26943016 85.57145309 C25.85914154 73.08897348 25.85914154 73.08897348 21.87420273 61.66590691 C19.35347493 59.35317109 16.95157235 57.70863085 14 56 C12.25125047 54.60757877 10.51971577 53.19304405 8.8125 51.75 C7.90371094 51.01523438 6.99492188 50.28046875 6.05859375 49.5234375 C2.43979069 46.53780943 -1.09272568 43.4620038 -4.625 40.375 C-9.9464571 35.72846269 -15.33232307 31.22387847 -21 27 C-19.59160505 22.70554982 -17.54145224 20.12953521 -14.4375 16.875 C-9.35982934 11.4425576 -4.64981206 5.80664936 0 0 Z " fill="#010000" transform="translate(93,90)"/>
</svg>
